<?xml version="1.0" encoding="UTF-8" standalone="no"?>
<!-- Created with Inkscape (http://www.inkscape.org/) -->

<svg
   width="198.53587mm"
   height="75.376556mm"
   viewBox="0 0 198.53587 75.376556"
   version="1.1"
   id="svg5"
   xml:space="preserve"
   inkscape:version="1.2.1 (9c6d41e410, 2022-07-14)"
   sodipodi:docname="logo_white.svg"
   inkscape:export-filename="logo_white_.svg"
   inkscape:export-xdpi="96"
   inkscape:export-ydpi="96"
   xmlns:inkscape="http://www.inkscape.org/namespaces/inkscape"
   xmlns:sodipodi="http://sodipodi.sourceforge.net/DTD/sodipodi-0.dtd"
   xmlns="http://www.w3.org/2000/svg"
   xmlns:svg="http://www.w3.org/2000/svg"><sodipodi:namedview
     id="namedview7"
     pagecolor="#ffffff"
     bordercolor="#000000"
     borderopacity="0.25"
     inkscape:showpageshadow="2"
     inkscape:pageopacity="0.0"
     inkscape:pagecheckerboard="0"
     inkscape:deskcolor="#d1d1d1"
     inkscape:document-units="mm"
     showgrid="false"
     inkscape:zoom="0.5"
     inkscape:cx="801"
     inkscape:cy="588"
     inkscape:window-width="1920"
     inkscape:window-height="1017"
     inkscape:window-x="-8"
     inkscape:window-y="-8"
     inkscape:window-maximized="1"
     inkscape:current-layer="layer1" /><defs
     id="defs2" /><g
     inkscape:label="Ebene 1"
     inkscape:groupmode="layer"
     id="layer1"><path
       style="fill:#e1e1e1;stroke:none;stroke-width:0.208041"
       d="m 37.447207,0.0030581 c -5.700113,0.07587 -11.299535,1.154752 -16.435234,3.722248 -3.867398,1.93347 -7.619395,4.397278 -10.591468,7.5724819 -14.7355408,15.742498 -13.8455333,40.948738 2.685912,55.103428 3.408356,2.91819 7.388782,5.26261 11.650293,6.68456 4.196394,1.40012 8.659704,2.37271 13.106579,2.28533 5.46898,-0.10776 11.108138,-1.35497 16.019152,-3.79321 7.382541,-3.66505 13.437573,-9.43382 17.213516,-16.79972 7.715198,-15.05093 4.111513,-34.6694 -8.891878,-45.6461979 -3.294744,-2.781258 -6.979357,-5.111587 -11.02617,-6.637734 -4.389872,-1.655506 -9.034802,-2.553702 -13.730702,-2.491186 M 137.09881,12.545867 v 47.433339 h 9.77792 v -13.31462 c 0,-2.45593 -0.30207,-5.11303 0.4242,-7.48948 1.00109,-3.27519 4.85089,-5.78728 8.10465,-3.74578 2.43013,1.52453 2.49732,4.53467 2.49732,7.07444 v 17.47544 h 9.98597 v -16.2272 c 0,-4.05825 0.0849,-8.4165 -1.93728,-12.06637 -3.84355,-6.9365 -15.47263,-5.60879 -18.86681,1.0402 h -0.20805 V 12.545867 h -9.77792 M 37.863289,47.912826 h 0.208041 l 2.77381,-8.73772 8.044319,-24.132748 H 63.452325 V 59.979206 H 53.46636 l 0.416081,-35.99109 h -0.20804 c -2.872214,8.82697 -5.87154,17.61483 -8.806998,26.4212 l -2.28845,6.86535 c -0.239663,0.71858 -0.419827,2.02923 -1.077028,2.49067 -1.248454,0.87668 -4.835912,0.21449 -6.343168,0.21387 -0.661154,-2.1e-4 -1.540959,0.14812 -1.964323,-0.48224 -0.744162,-1.10782 -1.012743,-2.83206 -1.43361,-4.09466 -0.903938,-2.71182 -1.869872,-5.40116 -2.774018,-8.1136 -1.689084,-5.06746 -3.381913,-10.14033 -5.133826,-15.18699 -0.908931,-2.61799 -2.22687,-5.36392 -2.632966,-8.1136 h -0.208041 l 0.416082,35.99109 H 12.274253 V 15.042358 h 10.610088 l 4.054718,0.213825 1.007543,2.282663 2.011131,6.24123 7.905556,24.13275 m 76.559061,-27.04532 v 7.07339 h -5.20103 v 7.28143 h 5.20103 v 12.6905 c 0,3.25501 -0.0897,6.57181 1.88152,9.36164 2.41827,3.42269 7.2132,3.77053 11.01702,3.36339 1.10282,-0.11816 3.2523,-0.11629 3.94695,-1.16191 0.94159,-1.41717 0.21387,-5.29609 0.21387,-6.98622 -1.71281,0.29105 -3.51506,1.16066 -5.2002,0.18932 -1.84428,-1.06267 -2.08041,-3.27165 -2.08124,-5.1823 v -12.27442 h 7.28144 v -7.28143 h -7.28144 v -9.77792 l -9.77792,2.70453 m -36.199119,16.22719 c 1.184378,-0.34847 2.195248,-1.09034 3.328655,-1.57549 4.427736,-1.89484 13.165663,-3.52484 13.314621,3.6559 -4.91788,0.21116 -11.966307,0.67926 -16.019153,3.69502 -5.294434,3.93967 -5.090762,13.72987 1.040205,16.8226 5.793524,2.92235 11.202797,0.13669 14.978948,-4.29042 v 4.5769 h 9.361833 v -17.05936 c 0,-4.08114 -0.1683,-8.60478 -2.97519,-11.8575 -4.161023,-4.82198 -11.587667,-4.30458 -17.204772,-3.16285 -1.418839,0.28835 -4.755608,0.70713 -5.61128,2.00073 -0.963854,1.45712 -0.213867,5.45712 -0.213867,7.19447 m 95.698829,14.14679 v 5.82514 c 0,0.63328 -0.17289,1.62335 0.33349,2.11079 1.28007,1.2316 4.85026,1.30857 6.53186,1.4438 6.23415,0.50096 15.81069,-0.3726 17.47232,-7.92345 1.36079,-6.18485 -2.47091,-9.85594 -7.90244,-11.8473 -1.84969,-0.67801 -7.54564,-1.79977 -6.60696,-4.79514 0.44728,-1.42799 2.17631,-1.9198 3.48635,-2.10829 3.48531,-0.50096 6.12202,1.20539 9.36184,1.89942 v -7.48948 c -7.60806,-1.57029 -22.54248,-2.84641 -22.67563,8.73772 -0.0162,1.40698 0.13023,2.85495 0.69361,4.16082 1.49644,3.46804 5.31045,4.99652 8.6674,6.10163 1.74838,0.57565 3.8731,0.9597 5.11905,2.4474 1.72217,2.0569 -0.93743,3.79612 -2.8306,4.07885 -4.39528,0.65616 -7.69377,-1.20206 -11.65029,-2.64191 m -79.055553,-6.44927 c 0,1.59879 0.146044,3.24481 -0.364072,4.78494 -1.101993,3.3272 -5.942481,5.82015 -8.978215,3.24669 -2.208354,-1.87196 -1.421544,-5.4074 1.021481,-6.61259 0.910179,-0.44895 1.917722,-0.59208 2.911741,-0.73833 1.789984,-0.2638 3.606182,-0.53841 5.409065,-0.68071 z"
       id="path179" /></g></svg>
